<svg width="12" height="8" viewBox="0 0 12 8" fill="none" xmlns="http://www.w3.org/2000/svg"><path d="M7.71753 3.99157L5.57941 6.13623C5.46599 6.25 5.40271 6.40444 5.40348 6.5656C5.40425 6.72676 5.469 6.88142 5.5835 6.99557C5.698 7.10972 5.85286 7.174 6.01402 7.17428C6.17518 7.17455 6.32943 7.1108 6.44285 6.99704L8.58096 4.85237L11.5743 1.84983C11.6877 1.73607 11.751 1.58163 11.7503 1.42047C11.7495 1.25931 11.6847 1.10465 11.5702 0.990498C11.4557 0.876348 11.3009 0.812065 11.1397 0.81179C10.9786 0.811515 10.8243 0.87527 10.7109 0.989031L7.71753 3.99157Z" fill="#3F261C"/><path d="M3.42047 4.86012L5.56007 7.01015C5.67356 7.1242 5.82793 7.18827 5.98921 7.18826C6.1505 7.18826 6.30549 7.12419 6.42009 7.01015C6.53469 6.8961 6.59952 6.74142 6.6003 6.58014C6.60109 6.41885 6.53777 6.26417 6.42428 6.15013L4.28468 4.0001L1.28925 0.990064C1.17576 0.87602 1.02139 0.811951 0.860101 0.811952C0.698815 0.811953 0.543823 0.876024 0.429221 0.99007C0.314619 1.10412 0.249795 1.25879 0.249009 1.42008C0.248224 1.58136 0.311541 1.73604 0.425033 1.85009L3.42047 4.86012Z" fill="#3F261C"/></svg>