<svg width="12" height="8" viewBox="0 0 12 8" fill="none" xmlns="http://www.w3.org/2000/svg">
<g id="Group 9">
<path id="Vector" d="M7.71557 4.05138L5.57745 6.19605C5.46404 6.30981 5.40076 6.46426 5.40153 6.62541C5.40229 6.78657 5.46705 6.94123 5.58155 7.05538C5.69605 7.16953 5.85091 7.23382 6.01207 7.23409C6.17323 7.23437 6.32748 7.17061 6.44089 7.05685L8.57901 4.91218L11.5724 1.90965C11.6858 1.79589 11.7491 1.64144 11.7483 1.48028C11.7475 1.31913 11.6828 1.16446 11.5683 1.05031C11.4538 0.936163 11.2989 0.87188 11.1378 0.871605C10.9766 0.87133 10.8224 0.935085 10.7089 1.04885L7.71557 4.05138Z" fill="#A24E4C"/>
<path id="Vector_2" d="M3.41827 4.91994L5.55787 7.06997C5.67136 7.18401 5.82573 7.24808 5.98702 7.24808C6.1483 7.24808 6.30329 7.18401 6.4179 7.06996C6.5325 6.95591 6.59732 6.80124 6.59811 6.63995C6.59889 6.47867 6.53557 6.32399 6.42208 6.20994L4.28249 4.05992L1.28705 1.04988C1.17356 0.935834 1.01919 0.871765 0.857904 0.871766C0.696618 0.871767 0.541625 0.935838 0.427023 1.04988C0.312421 1.16393 0.247598 1.31861 0.246812 1.47989C0.246027 1.64118 0.309344 1.79586 0.422835 1.9099L3.41827 4.91994Z" fill="#A24E4C"/>
</g>
</svg>
